<svg width="16" height="15" fill="none" xmlns="http://www.w3.org/2000/svg"><path d="M8.137 3.682a3.812 3.812 0 0 0-3.821 3.815 3.812 3.812 0 0 0 3.82 3.815 3.812 3.812 0 0 0 3.822-3.815 3.812 3.812 0 0 0-3.821-3.815Zm0 6.295a2.487 2.487 0 0 1-2.485-2.48 2.485 2.485 0 0 1 4.97 0 2.487 2.487 0 0 1-2.485 2.48Zm4.869-6.451c0 .494-.4.89-.892.89a.89.89 0 1 1 .891-.89Zm2.53.903c-.056-1.192-.329-2.248-1.204-3.118C13.463.44 12.404.169 11.21.109c-1.23-.07-4.919-.07-6.15 0-1.19.056-2.248.329-3.122 1.199-.875.87-1.144 1.925-1.204 3.117-.07 1.229-.07 4.911 0 6.14.056 1.192.329 2.248 1.204 3.117.874.87 1.929 1.143 3.123 1.202 1.23.07 4.918.07 6.149 0 1.194-.056 2.251-.328 3.122-1.202.872-.87 1.145-1.925 1.204-3.117.07-1.229.07-4.908 0-6.136Zm-1.59 7.454a2.513 2.513 0 0 1-1.416 1.414c-.981.389-3.31.3-4.393.3-1.084 0-3.416.085-4.393-.3a2.513 2.513 0 0 1-1.417-1.414c-.39-.98-.3-3.304-.3-4.386 0-1.083-.086-3.41.3-4.386.26-.651.761-1.153 1.417-1.415.98-.388 3.309-.299 4.393-.299 1.084 0 3.415-.086 4.393.3.652.258 1.154.76 1.417 1.414.389.979.3 3.303.3 4.386 0 1.082.089 3.41-.3 4.386Z" fill="#000"/></svg>