<svg xmlns="http://www.w3.org/2000/svg"><style>:root svg:not(:target){display:none}</style><svg fill="none" id="icon-advantages-1" viewBox="0 0 46 32"><path d="M30.287 27.243H14.81a5.562 5.562 0 0 1-10.987 0H1.886a1.869 1.869 0 0 1-1.857-1.876V1.877A1.869 1.869 0 0 1 1.886 0h25.55a1.868 1.868 0 0 1 1.857 1.877v1.905h7.12a.9.9 0 0 1 .239.031c2.3.2 3.457 1.4 4.677 3.462l3.559 6.094c.085.145.13.31.13.477v12.458a.934.934 0 0 1-.93.938h-2.813a5.562 5.562 0 0 1-10.987 0h-.001Zm1.778-.939a3.715 3.715 0 1 0 3.716-3.755 3.74 3.74 0 0 0-3.716 3.755Zm-26.464 0a3.715 3.715 0 1 0 3.716-3.755A3.74 3.74 0 0 0 5.6 26.304Zm35.672-.938h1.886v-5.618h-2.736a.932.932 0 0 1-.93-.938v-1.847c0-.72.276-1.414.77-1.938h-6.378a.927.927 0 0 1-.23-.03 2.824 2.824 0 0 1-2.573-2.823v-4.7a.936.936 0 0 1 .929-.939h6.483a3.354 3.354 0 0 0-2.578-.88h-6.623v19.709h.994a5.562 5.562 0 0 1 10.987 0l-.001.004Zm-26.464 0h12.627V1.876H1.886v23.49h1.937a5.562 5.562 0 0 1 10.987 0h-.001Zm26.542-8.4v.909h1.808v-1.847h-.88a.934.934 0 0 0-.927.935l-.001.003Zm-8.413-4.792a.955.955 0 0 0 .947.958c.064 0 .127.006.19.02H42.6l-2.766-4.736h-6.9l.004 3.758Zm.093 14.132a2.766 2.766 0 0 1 2.749-2.777.938.938 0 0 1 0 1.876.9.9 0 1 0 .892.9.928.928 0 0 1 1.857 0 2.75 2.75 0 1 1-5.5 0h.002Zm-26.464 0a2.766 2.766 0 0 1 2.749-2.777.938.938 0 0 1 0 1.876.9.9 0 1 0 .892.9.929.929 0 0 1 1.857 0 2.75 2.75 0 1 1-5.5 0h.002ZM4.709 5.66a.938.938 0 1 1 0-1.876h19.9a.938.938 0 1 1 0 1.876h-19.9Z" fill="#F16D7F"></path></svg><svg fill="none" id="icon-advantages-2" viewBox="0 0 40 40"><path d="m19.994 37.024-3.471 2.9-2.288-3.92-4.24 1.512-.822-4.48-4.493-.045.732-4.5-4.208-1.6 2.21-3.966L0 19.96l3.412-2.967-2.21-3.965 4.209-1.6-.733-4.495 4.494-.044.822-4.48 4.24 1.51L16.522 0l3.47 2.9L23.465 0l2.289 3.92 4.24-1.511.82 4.48 4.495.046-.732 4.495 4.208 1.6-2.21 3.966 3.412 2.965-3.412 2.967 2.209 3.966-4.21 1.6.734 4.494-4.495.045-.821 4.48-4.238-1.51-2.29 3.92-3.47-2.9ZM21.2 35.54l1.76 1.471 1.162-1.99.792-1.356 1.468.523 2.15.768.418-2.273.285-1.555 1.56-.016 2.283-.021-.372-2.282-.254-1.56 1.459-.554 2.134-.813-1.12-2.01-.766-1.375 1.183-1.027 1.734-1.51-1.733-1.5-1.183-1.03.766-1.375 1.12-2.011-2.133-.811-1.46-.553.256-1.56.372-2.281-2.282-.023-1.56-.016-.285-1.554-.416-2.273-2.152.767-1.468.523-.793-1.357-1.162-1.99-1.762 1.47-1.205 1.006-1.205-1.005-1.761-1.471-1.161 1.989-.792 1.357-1.47-.523-2.15-.768-.417 2.274-.285 1.554-1.56.016-2.281.022.372 2.282.254 1.558-1.46.555-2.134.81 1.12 2.012.767 1.375-1.183 1.029-1.734 1.508 1.733 1.507 1.183 1.029-.766 1.375-1.121 2.01 2.133.81 1.46.555-.255 1.559-.371 2.284 2.28.023 1.56.016.286 1.555.417 2.272 2.152-.767 1.469-.523.792 1.357 1.162 1.99 1.76-1.471 1.206-1.005 1.204.998Zm.118-12.521c0-2.927 1.565-4.555 3.459-4.555 2.006 0 3.3 1.563 3.3 4.33 0 3.059-1.585 4.577-3.415 4.577-1.78 0-3.324-1.45-3.344-4.352Zm1.52-.088c-.022 1.85.683 3.258 1.873 3.258 1.277 0 1.85-1.385 1.85-3.3 0-1.765-.507-3.237-1.85-3.237-1.211-.004-1.872 1.45-1.872 3.278Zm-7.644 4.4 8.415-14.719h1.233l-8.415 14.719h-1.233ZM11.979 16.99c0-2.9 1.563-4.532 3.458-4.532 2 0 3.326 1.564 3.326 4.332 0 3.058-1.586 4.575-3.436 4.575-1.783 0-3.327-1.45-3.348-4.374v-.001Zm1.542-.066c-.044 1.85.64 3.257 1.85 3.259 1.277 0 1.85-1.384 1.85-3.3 0-1.766-.507-3.238-1.85-3.238-1.21-.003-1.85 1.447-1.85 3.28v-.001Z" fill="#F16D7F"></path></svg><svg fill="none" id="icon-advantages-3" viewBox="0 0 48 35"><path d="M42.393 8.536a4.6 4.6 0 0 0-4.646 4.533 4.456 4.456 0 0 0 1.56 3.365l-5.86 2.055-8.339-9.683a4.536 4.536 0 0 0 3.1-4.256 4.646 4.646 0 0 0-9.29 0 4.544 4.544 0 0 0 3.045 4.242l-8.352 9.7-5.858-2.055a4.457 4.457 0 0 0 1.558-3.365 4.647 4.647 0 1 0-5.745 4.393v12.29c.007.083.024.163.05.242-.033.126-.05.257-.05.388 0 4.412 17.919 4.542 19.962 4.542 2.043 0 19.962-.13 19.962-4.542 0-.131-.018-.262-.05-.388a.899.899 0 0 0 .05-.241V17.465a4.516 4.516 0 0 0-1.093-8.926l-.004-.003ZM21.174 4.552A2.386 2.386 0 1 1 23.56 6.88a2.362 2.362 0 0 1-2.386-2.328Zm-7.59 16.276a1.155 1.155 0 0 0 1.246-.33l8.7-10.1 8.7 10.1a1.155 1.155 0 0 0 1.245.33l7.758-2.724v9.937c-4.885-2.122-16.109-2.2-17.7-2.2-1.591 0-12.819.079-17.7 2.2v-9.937l7.751 2.724Zm9.943 11.889c-8.7 0-14.249-1.011-16.557-1.862a4.63 4.63 0 0 1-1-.474c.722-.521 3.061-1.232 6.966-1.732a93.168 93.168 0 0 1 21.175 0c3.9.5 6.245 1.21 6.965 1.732-.31.198-.645.358-.995.474-2.302.849-7.846 1.862-16.554 1.862ZM2.28 13.069a2.385 2.385 0 1 1 2.386 2.33 2.361 2.361 0 0 1-2.386-2.33Zm40.113 2.33a2.328 2.328 0 1 1 2.386-2.33 2.362 2.362 0 0 1-2.386 2.329Z" fill="#F16D7F"></path></svg><svg fill="none" id="icon-arrow-right" viewBox="0 0 17 10"><path fill-rule="evenodd" clip-rule="evenodd" d="M11.54.208a.709.709 0 0 1 1.003 0l4.25 4.25a.708.708 0 0 1 0 1.003l-4.25 4.25a.71.71 0 0 1-1.003-1.003l3.75-3.749-3.75-3.748a.708.708 0 0 1 0-1.003Z" fill="#fff"></path><path fill-rule="evenodd" clip-rule="evenodd" d="M0 4.96a.708.708 0 0 1 .708-.709h14.875a.708.708 0 0 1 0 1.417H.708A.708.708 0 0 1 0 4.959Z" fill="#fff"></path></svg><svg viewBox="0 0 32 29" id="icon-cart"><path d="M26.2 29a2.477 2.477 0 1 1 .201 0h-.2ZM6.754 26.32a2.68 2.68 0 1 1 5.364 0 2.68 2.68 0 0 1-5.366 0h.002Zm3.8-5.634a1.184 1.184 0 0 1-1.145-.867L4.575 2.364H1.182a1.182 1.182 0 0 1 0-2.364h4.281a1.183 1.183 0 0 1 1.144.868l4.833 17.455h13.178L29 8.275h-14.6a1.183 1.183 0 1 1 0-2.365h16.413a1.178 1.178 0 0 1 .986.533 1.191 1.191 0 0 1 .1 1.122l-5.405 12.412a1.185 1.185 0 0 1-1.084.709H10.553Z"></path></svg><svg fill="none" id="icon-check" viewBox="0 0 20 16"><path d="M19.803 0H18.09a.777.777 0 0 0-.615.303L7.37 13.283 2.525 7.058a.786.786 0 0 0-.615-.304H.196a.199.199 0 0 0-.154.32l6.713 8.624a.78.78 0 0 0 1.233 0L19.958.318A.197.197 0 0 0 19.804 0Z" fill="#000"></path></svg><svg fill="none" id="icon-close" viewBox="0 0 20 20"><path d="M.293 18.291a1 1 0 1 0 1.414 1.414L10 11.413l8.292 8.292a1 1 0 1 0 1.414-1.414l-8.292-8.292 8.292-8.292A1 1 0 1 0 18.291.293L9.999 8.585 1.707.293A1 1 0 1 0 .293 1.707L8.585 10 .293 18.291z" fill="#fff"></path></svg><svg viewBox="0 0 9 15" id="icon-fb"><path d="m8.088 8.28.419-2.664H5.89V3.887c0-.729.366-1.439 1.538-1.439h1.19V.18S7.537 0 6.504 0C4.351 0 2.942 1.276 2.942 3.586v2.03H.547V8.28h2.395v6.44H5.89V8.28h2.198Z"></path></svg><svg fill="none" id="icon-filter" viewBox="0 0 15 10"><path d="M.833 10h3.334A.836.836 0 0 0 5 9.167a.836.836 0 0 0-.833-.834H.833A.836.836 0 0 0 0 9.167c0 .458.375.833.833.833ZM0 .833c0 .459.375.834.833.834h13.334A.836.836 0 0 0 15 .833.836.836 0 0 0 14.167 0H.833A.836.836 0 0 0 0 .833Zm.833 5h8.334A.836.836 0 0 0 10 5a.836.836 0 0 0-.833-.833H.833A.836.836 0 0 0 0 5c0 .458.375.833.833.833Z" fill="#000"></path></svg><svg viewBox="0 0 16 15" id="icon-ig"><path d="M8.137 3.682a3.812 3.812 0 0 0-3.821 3.815 3.812 3.812 0 0 0 3.82 3.815 3.812 3.812 0 0 0 3.822-3.815 3.812 3.812 0 0 0-3.821-3.815Zm0 6.295a2.487 2.487 0 0 1-2.485-2.48 2.485 2.485 0 0 1 4.97 0 2.487 2.487 0 0 1-2.485 2.48Zm4.869-6.451c0 .494-.4.89-.892.89a.89.89 0 1 1 .891-.89Zm2.53.903c-.056-1.192-.329-2.248-1.204-3.118C13.463.44 12.404.169 11.21.109c-1.23-.07-4.919-.07-6.15 0-1.19.056-2.248.329-3.122 1.199-.875.87-1.144 1.925-1.204 3.117-.07 1.229-.07 4.911 0 6.14.056 1.192.329 2.248 1.204 3.117.874.87 1.929 1.143 3.123 1.202 1.23.07 4.918.07 6.149 0 1.194-.056 2.251-.328 3.122-1.202.872-.87 1.145-1.925 1.204-3.117.07-1.229.07-4.908 0-6.136Zm-1.59 7.454a2.513 2.513 0 0 1-1.416 1.414c-.981.389-3.31.3-4.393.3-1.084 0-3.416.085-4.393-.3a2.513 2.513 0 0 1-1.417-1.414c-.39-.98-.3-3.304-.3-4.386 0-1.083-.086-3.41.3-4.386.26-.651.761-1.153 1.417-1.415.98-.388 3.309-.299 4.393-.299 1.084 0 3.415-.086 4.393.3.652.258 1.154.76 1.417 1.414.389.979.3 3.303.3 4.386 0 1.082.089 3.41-.3 4.386Z"></path></svg><svg viewBox="0 0 32 23" id="icon-menu"><path d="M0 23v-2.69h32V23H0Zm0-10.24v-2.69h32v2.69H0ZM0 2.69V0h32v2.69H0Z"></path></svg><svg viewBox="0 0 13 16" id="icon-pinterest"><path d="M6.74.203C3.556.203.408 2.341.408 5.8c0 2.2 1.23 3.45 1.974 3.45.308 0 .484-.863.484-1.106 0-.29-.735-.91-.735-2.119 0-2.513 1.9-4.294 4.358-4.294 2.114 0 3.678 1.21 3.678 3.431 0 1.66-.661 4.772-2.803 4.772-.773 0-1.434-.562-1.434-1.368 0-1.182.82-2.325.82-3.544 0-2.069-2.915-1.694-2.915.806 0 .525.065 1.106.298 1.584-.428 1.857-1.304 4.622-1.304 6.535 0 .59.084 1.172.14 1.762.105.12.053.107.214.047 1.564-2.156 1.509-2.578 2.216-5.4.382.732 1.37 1.125 2.151 1.125 3.297 0 4.777-3.234 4.777-6.15 0-3.103-2.663-5.128-5.587-5.128Z"></path></svg><svg viewBox="0 0 27 28" id="icon-search"><path d="M19.059 17.625A10.395 10.395 0 1 0 11.419 21a10.319 10.319 0 0 0 6.24-2.09l7.749 7.807a.927.927 0 0 0 .66.285.903.903 0 0 0 .66-.285.971.971 0 0 0 0-1.346l-7.67-7.746ZM2.886 10.5a8.535 8.535 0 1 1 8.534 8.6 8.575 8.575 0 0 1-8.534-8.6Z"></path></svg><svg viewBox="0 0 17 14" id="icon-twitter"><path d="M14.418 3.741c.01.142.01.284.01.426 0 4.335-3.277 9.33-9.267 9.33a9.16 9.16 0 0 1-5.002-1.472c.262.03.515.04.787.04a6.495 6.495 0 0 0 4.044-1.4A3.266 3.266 0 0 1 1.944 8.39c.202.03.404.05.615.05.293 0 .585-.04.857-.111A3.274 3.274 0 0 1 .805 5.112V5.07c.433.244.937.396 1.472.416a3.283 3.283 0 0 1-1.452-2.73c0-.61.161-1.168.444-1.656a9.238 9.238 0 0 0 6.715 3.432 3.727 3.727 0 0 1-.08-.751c0-1.807 1.452-3.28 3.257-3.28a3.24 3.24 0 0 1 2.38 1.036 6.386 6.386 0 0 0 2.067-.792 3.266 3.266 0 0 1-1.432 1.807 6.494 6.494 0 0 0 1.876-.507 7.029 7.029 0 0 1-1.634 1.695Z"></path></svg><svg viewBox="0 0 29 29" id="icon-user"><path d="M14.5 19.937c4.5 0 8.156-4.473 8.156-9.969C22.656 4.472 19 0 14.5 0a7.45 7.45 0 0 0-5.834 3 11.159 11.159 0 0 0-2.322 6.974c0 5.491 3.656 9.963 8.156 9.963Zm0-18.124c3.5 0 6.344 3.659 6.344 8.156 0 4.497-2.846 8.156-6.344 8.156s-6.344-3.66-6.345-8.156C8.154 5.473 11 1.813 14.5 1.813Zm6.344 16.312a.907.907 0 0 0 0 1.813 6.351 6.351 0 0 1 6.344 6.344.908.908 0 0 1-.906.906H2.72a.908.908 0 0 1-.906-.906 6.352 6.352 0 0 1 6.344-6.344.906.906 0 0 0 0-1.812A8.165 8.165 0 0 0 0 26.281 2.722 2.722 0 0 0 2.719 29h23.563A2.722 2.722 0 0 0 29 26.281a8.166 8.166 0 0 0-8.156-8.156Z"></path></svg></svg>